<svg id="Layer_1" data-name="Layer 1" xmlns="http://www.w3.org/2000/svg" viewBox="0 0 60.92 60.92"><defs><style>.cls-1{fill:#ededee;}.cls-2{fill:#05b04e;}.cls-3{fill:#c0c2c4;opacity:0.09;}</style></defs><title>02 icon_1</title><rect class="cls-1" width="60.91" height="60.91" rx="30.45"/><path class="cls-2" d="M45.5,30.08,36,20.56a2.43,2.43,0,0,0-4.14,1.72v3.33H27.49c-5.31,0-8.83-1.87-11-5.33a.94.94,0,0,0-1.75.49v4.84A12.79,12.79,0,0,0,27.49,38.4h4.35v2.92A2.43,2.43,0,0,0,36,43l9.52-9.52A2.43,2.43,0,0,0,45.5,30.08Z"/><path class="cls-3" d="M42.11,2.32h0A30.45,30.45,0,0,1,58.59,42.11h0a30.46,30.46,0,0,1-39.8,16.48h0"/></svg>